PathFileType	4	(X/Y/Z)	/Users/visionmauri/Downloads/Videos/OAW13-top_Sports2D/OAW13-top_Sports2D_px_person00.trc
DataRate	CameraRate	NumFrames	NumMarkers	Units	OrigDataRate	OrigDataStartFrame	OrigNumFrames
27.0	27.0	11	22	m	27.0	741	1977
Frame#	Time	Hip			RHip			RKnee			RAnkle			RBigToe			RSmallToe			RHeel			LHip			LKnee			LAnkle			LBigToe			LSmallToe			LHeel			Neck			Head			Nose			RShoulder			RElbow			RWrist			LShoulder			LElbow			LWrist			
		X1	Y1	Z1	X2	Y2	Z2	X3	Y3	Z3	X4	Y4	Z4	X5	Y5	Z5	X6	Y6	Z6	X7	Y7	Z7	X8	Y8	Z8	X9	Y9	Z9	X10	Y10	Z10	X11	Y11	Z11	X12	Y12	Z12	X13	Y13	Z13	X14	Y14	Z14	X15	Y15	Z15	X16	Y16	Z16	X17	Y17	Z17	X18	Y18	Z18	X19	Y19	Z19	X20	Y20	Z20	X21	Y21	Z21	X22	Y22	Z22
741	27.458333333333336	371.3379261550344	1345.61569547257	0.0	289.8553552863562	1367.2078778661908	0.0	305.7887207487825	1632.3394355184362	0.0	276.71671186975993	1863.229181983576	0.0	351.7474544323565	1873.0522226944079	0.0	288.42112585251175	1885.1980088541407	0.0	263.80335399011244	1871.910550879003	0.0	438.71548991006006	1341.4254953255606	0.0	466.72832189711664	1604.9076638320353	0.0	410.0038044429802	1823.7172543095064	0.0	508.7323167913453	1901.1100712011687	0.0	508.4404535114152	1880.922681870753	0.0	380.68956124007406	1844.5377128919677	0.0	404.8596497570578	955.6242211888344	0.0	531.0215452734799	806.4642343992758	0.0	502.2541594722503	952.4679226908738	0.0	286.1430420262817	1004.6929752406786	0.0	217.43435145572315	1281.0010344942925	0.0	312.58155845485777	1488.0418402123942	0.0	483.89150613836506	978.7498679417893	0.0	443.2130794454449	1167.9143417665405	0.0	451.5335028580518	1320.487619451374	0.0
742	27.49538911381017	377.38069197728987	1354.768878376831	0.0	292.5214761897976	1374.6331030186625	0.0	304.40210878324615	1649.7106935503025	0.0	280.0898029457639	1868.6841271806002	0.0	352.9846034280304	1879.5568658986408	0.0	299.4211948889225	1884.309104607419	0.0	264.5265660400783	1873.5847114149444	0.0	443.239000219332	1351.2057481099487	0.0	469.5416508394829	1615.3907543382134	0.0	410.40436412622887	1830.0203471753744	0.0	510.81311479997714	1901.5237671641312	0.0	504.92428558295717	1882.1510886989133	0.0	379.7559723826178	1849.8186799059522	0.0	414.933587953962	953.9425696269101	0.0	545.1140705361411	807.0309226722384	0.0	518.0921548093195	948.8630725183783	0.0	296.81542208790114	1002.4781154537941	0.0	229.01825253590852	1282.4824199657721	0.0	333.18435855422905	1490.2265763661562	0.0	486.83460671100136	985.2213853388296	0.0	444.63323368481184	1176.8548327589735	0.0	457.8128819159627	1329.8987895452685	0.0
743	27.532444894287	384.4502063281872	1360.4933762957444	0.0	296.278858644504	1375.1159091213674	0.0	306.420409690102	1659.1615702876793	0.0	282.34273707429554	1870.2452503992827	0.0	350.56730115649225	1882.776034602706	0.0	303.3985445338754	1883.607549500709	0.0	263.37319831352545	1874.697376295043	0.0	449.45379389217	1353.2389760118824	0.0	473.20699587380875	1623.1962983234598	0.0	413.5133605687636	1834.7438445281355	0.0	511.29650727827044	1902.3708362432983	0.0	503.3094551285533	1882.5768313045962	0.0	381.00215387063315	1853.5966555487353	0.0	423.34043511748996	954.5280442129734	0.0	557.3469622936399	807.4631399111965	0.0	529.9584365314771	947.7360737768803	0.0	307.22932386768207	1000.2774898230974	0.0	239.18403091014827	1281.9810145818333	0.0	349.19530504398745	1487.9220340497616	0.0	491.21691391081055	992.0230386850831	0.0	447.0525221800711	1184.5685686011639	0.0	464.4209303107681	1337.0277519192762	0.0
744	27.569500674763834	392.2587689444177	1365.5866330366323	0.0	303.5737823571246	1375.5784532273844	0.0	313.5160263349653	1661.6749757953232	0.0	282.3274704800454	1869.6557666325853	0.0	348.13100660334584	1882.9315557502334	0.0	304.38396067126	1879.5795189019095	0.0	260.3376169170994	1872.524682085891	0.0	457.06274198318886	1353.786635277076	0.0	479.1491297671448	1626.9647710385693	0.0	418.21034248305176	1837.0928983351446	0.0	511.3186986030739	1903.3462855559003	0.0	503.8533434490557	1883.7204142539592	0.0	384.035933370864	1855.5691301616357	0.0	430.90303687517303	956.0179311841052	0.0	567.0443816010458	808.0694488291285	0.0	540.2307752040446	947.5700511998582	0.0	316.8365638625475	1000.0326475646223	0.0	248.39329132976187	1282.854814138204	0.0	362.1821502552962	1486.5383397070627	0.0	495.8936788761931	996.1688119090494	0.0	450.7291409412101	1188.0043800416763	0.0	469.7330801512804	1338.7330801262403	0.0
745	27.606556455240668	400.54056272360225	1371.863986908849	0.0	313.3577515781632	1381.6400358529827	0.0	326.69073777243784	1659.7693766873413	0.0	280.83250675336103	1866.2467137760873	0.0	348.16551502253407	1875.4084747156803	0.0	306.43942979961224	1871.1748114349741	0.0	257.571384071527	1863.191288373449	0.0	464.8114315347364	1359.5528928814497	0.0	487.0331710899536	1627.7359899243415	0.0	421.26174249482443	1838.381462995516	0.0	511.68159127283855	1902.8892654853269	0.0	506.2565729655353	1886.331681932418	0.0	386.0070891693735	1856.9437721641905	0.0	438.1023050603999	957.7240833061758	0.0	575.3015861989918	808.8118159767076	0.0	551.012996256074	948.2253813165911	0.0	325.31318985558283	1002.4023753327097	0.0	256.4338075315454	1287.0749848003668	0.0	372.58282837339425	1489.0038998198775	0.0	499.7145956081682	998.3147876961723	0.0	455.0427470174715	1189.6790816231244	0.0	473.52895271063886	1341.0962461023528	0.0
746	27.6436122357175	408.4505107767496	1377.338269892262	0.0	322.08681966549125	1389.0495065750865	0.0	345.73624733175063	1656.8837495555292	0.0	278.0905353955903	1859.6263494708282	0.0	346.8432091829353	1868.2106747070527	0.0	305.1197509212861	1870.6124174325034	0.0	254.17900009880714	1851.6889600957609	0.0	471.67857701177707	1367.3235069629573	0.0	494.4609825696088	1627.577526532765	0.0	421.6499579693166	1839.1930723316025	0.0	514.696204579559	1901.1297908013007	0.0	512.651918445767	1888.3290986267707	0.0	385.7591326362849	1858.5228754339162	0.0	443.8499616086347	959.224438864715	0.0	581.341610212695	810.9425504318042	0.0	560.643329072354	950.636220313315	0.0	331.9175694789769	1005.878359529982	0.0	263.17177924973623	1292.9906066414244	0.0	379.33772906637927	1493.669916402468	0.0	504.1914078372702	1000.0125061973596	0.0	460.6240594144957	1194.6254533764093	0.0	477.980930844886	1351.7815805720745	0.0
747	27.680668016194335	415.2205291426414	1379.9654908938562	0.0	330.0457130153408	1391.8307499028665	0.0	367.2768061534351	1659.8853166994238	0.0	274.51710217142755	1854.3346319537516	0.0	339.28937878332204	1875.9702247201176	0.0	293.70519109984014	1885.84545974821	0.0	246.8124697743787	1848.8697033305345	0.0	477.8057916513773	1371.0406208286465	0.0	499.3858760999213	1627.9557672750982	0.0	421.8666613424135	1840.214179982158	0.0	518.6887844471087	1901.0634710623365	0.0	521.8262260225926	1888.62142743021	0.0	386.0472393616228	1861.2198859312948	0.0	448.0017029260118	959.9378826720891	0.0	586.1669278934407	814.153728005129	0.0	567.4447304350485	953.1001048248677	0.0	336.84049461834803	1008.5959538041934	0.0	269.1462416950104	1298.315911444599	0.0	381.65210302321606	1499.1990306769364	0.0	510.01455417728596	1001.3926487169191	0.0	468.9258080426842	1201.0477081206518	0.0	485.4793413434067	1363.783525971237	0.0
748	27.717723796671166	421.9319246170127	1381.1131660536644	0.0	342.1834699227152	1392.7575254197764	0.0	385.7167668102049	1671.3978607017937	0.0	271.31927641351785	1854.9787209608	0.0	327.7896817693476	1889.3225716659222	0.0	270.535188894674	1901.4227261808705	0.0	235.89180523856842	1854.1652870691335	0.0	483.70465731496296	1372.1816116640136	0.0	502.5763872862821	1629.6200980999295	0.0	423.8620105687681	1842.6014706360709	0.0	520.380895257376	1903.4604204187851	0.0	527.3897812058833	1888.5941284549936	0.0	389.2344543805266	1865.242725364174	0.0	452.1700084587799	960.3190534395038	0.0	592.6251956528267	816.431688752105	0.0	571.8233736466294	954.4467216969801	0.0	341.2806057849773	1010.7536045999391	0.0	274.2695198306837	1303.8880753259164	0.0	379.9761557756985	1505.4075429938123	0.0	514.0285957898456	1003.0049403779452	0.0	479.3687966557144	1202.5033550404255	0.0	496.6023456694348	1366.3682320110106	0.0
749	27.754779577148	429.637549662236	1381.1150509405854	0.0	359.1977339632592	1395.563084590091	0.0	398.0743530440863	1683.0618952221178	0.0	272.90396919747707	1859.416465476905	0.0	331.00877631269327	1888.9437305089082	0.0	261.5680203732098	1905.5901782826995	0.0	230.61018219888194	1858.2590335443745	0.0	489.0937508425959	1373.474253014124	0.0	506.3259717160831	1630.467147632875	0.0	426.68666829901713	1844.4485448999021	0.0	521.0611871217865	1904.8959665775026	0.0	526.968382426726	1889.512019079355	0.0	388.5988487831152	1866.6993024320486	0.0	456.37587260532297	962.0438586340468	0.0	600.869968644943	817.4804145905541	0.0	573.397796639334	956.7964216438521	0.0	346.27415200410894	1013.4254748091201	0.0	277.680554827664	1310.1068127709777	0.0	374.8746498991177	1511.7927034684	0.0	514.278689633137	1005.0581778039401	0.0	490.40531928578173	1198.4550961777688	0.0	510.3917957959511	1361.6468555238168	0.0
750	27.791835357624834	437.25015032690936	1377.8072027913272	0.0	375.3007734059474	1396.120653747808	0.0	407.29126527763157	1683.2148189766872	0.0	288.3941717776691	1862.4017810894338	0.0	372.69532946050003	1882.2872000357963	0.0	309.6970689283908	1907.906365106443	0.0	243.10968940826766	1858.4769717959216	0.0	493.67635491345516	1372.0681855008831	0.0	510.58779807330825	1626.735197563246	0.0	428.8229444713311	1842.6892151518744	0.0	522.2944153572693	1903.388912163081	0.0	525.5685782880355	1891.7589453617081	0.0	373.66404217775107	1860.9577604600247	0.0	458.68972423501424	965.425792268819	0.0	608.1666647429863	818.1837401415113	0.0	571.7734125674596	960.7621090896056	0.0	351.9342449600523	1015.8075378733583	0.0	279.92313613195597	1313.997359705447	0.0	367.05398534916196	1519.110663843382	0.0	513.8333330118568	1006.089133519532	0.0	501.6908473908384	1194.5131426905955	0.0	525.0323339445172	1357.2988341914777	0.0
751	27.828891138101667	442.4353369042284	1373.3835416614575	0.0	386.8700928622732	1392.5220031681995	0.0	419.2319520511046	1670.0128668468908	0.0	322.1793555343437	1863.0131318609235	0.0	442.27079014075457	1886.9921050323103	0.0	403.754317293112	1914.92017786769	0.0	274.2862460616219	1858.842238328006	0.0	496.0899894422756	1368.0912532431587	0.0	513.5153951962759	1618.5283573161496	0.0	429.86779941217003	1837.9657763305338	0.0	523.2213143132423	1900.1873587698508	0.0	526.5769120431954	1893.4860234431956	0.0	349.9723721277976	1849.182754616315	0.0	459.6031131471007	968.2419985152652	0.0	612.6889518992468	818.6512619348453	0.0	571.0934439337121	962.7693378743527	0.0	358.27895674651245	1017.2054349088559	0.0	283.2677609659094	1314.1701075116025	0.0	358.31042626930423	1526.7912260206576	0.0	515.4242384537451	1005.9488257652167	0.0	510.71081148704906	1194.2257921053038	0.0	538.1058779533724	1355.928610806206	0.0
